<svg xmlns="http://www.w3.org/2000/svg" viewBox="0 0 32 32"><g data-name="colored"><path d="m6.89 16-5.7 10.28 2.07 2.54 15.73.97 11.47-1.97.54-1.95L24.89 16z" style="fill:#1562b7"/><path d="M31.62 25.26 20.14 5.71l1.19-2.44a1.8 1.8 0 0 0-.16-1.71 1.82 1.82 0 0 0-1.51-.84h-7.32a1.81 1.81 0 0 0-1.68 2.52l1.2 2.44L.38 25.25a2.57 2.57 0 0 0-.21 2.25 3.67 3.67 0 0 0 2.42 2A58 58 0 0 0 16 31.28c3.6 0 10.37-.56 13.47-1.76a3.86 3.86 0 0 0 2.39-2.13 2.49 2.49 0 0 0-.24-2.13M14.08 5.8l-1.53-3.13h6.9L17.92 5.8l5.42 9.2H8.66ZM30 26.74a2.15 2.15 0 0 1-1.25 1C26 28.76 19.59 29.33 16 29.33a57 57 0 0 1-12.82-1.65A1.88 1.88 0 0 1 2 26.81a.6.6 0 0 1 .08-.57L7.51 17h17l2.35 4h-4.94a2.26 2.26 0 1 0 0 1.46h5.78l2.23 3.79a.6.6 0 0 1 .07.49m-9.44-5a.8.8 0 1 1-.79-.79.79.79 0 0 1 .81.76Z" data-name="shape - light" style="fill:#91b4bc"/></g></svg>