<svg xmlns="http://www.w3.org/2000/svg" data-name="Layer 1" viewBox="0 0 23 20.463"><path fill="#61dafb" d="M18.91 6.633q-.367-.126-.74-.234.062-.252.115-.506c.56-2.72.194-4.912-1.058-5.634-1.2-.692-3.162.03-5.144 1.755q-.293.255-.572.525-.187-.18-.38-.352C9.053.344 6.97-.432 5.72.29 4.523.984 4.168 3.045 4.67 5.623q.077.383.17.762-.44.126-.85.268C1.555 7.503 0 8.833 0 10.213c0 1.425 1.67 2.855 4.206 3.72q.308.106.622.196-.102.407-.18.82c-.482 2.533-.106 4.545 1.09 5.235 1.234.712 3.306-.02 5.325-1.784q.24-.208.48-.442.302.293.62.568c1.956 1.682 3.886 2.36 5.08 1.67 1.235-.715 1.636-2.876 1.115-5.505q-.06-.3-.138-.614.218-.064.428-.133C21.285 13.07 23 11.657 23 10.213c0-1.386-1.605-2.725-4.09-3.58m-6.18-3.877c1.698-1.478 3.285-2.06 4.01-1.644.77.444 1.068 2.235.584 4.584q-.047.23-.103.457a24 24 0 0 0-3.076-.486A23 23 0 0 0 12.2 3.24q.258-.248.528-.484zM6.79 11.39q.313.604.653 1.19.347.6.722 1.183a21 21 0 0 1-2.12-.34c.204-.657.454-1.34.746-2.032zm0-2.31a22 22 0 0 1-.73-1.99 22 22 0 0 1 2.084-.358q-.366.57-.705 1.16-.34.586-.65 1.188zm.522 1.156q.454-.945.98-1.854.522-.91 1.114-1.775a28 28 0 0 1 4.192 0q.585.865 1.108 1.77.526.906.992 1.845-.46.948-.988 1.862-.523.908-1.104 1.78a32 32 0 0 1-4.188.008q-.596-.87-1.124-1.783-.526-.91-.982-1.854zm8.25 2.34q.346-.603.666-1.22A21 21 0 0 1 17 13.38a21 21 0 0 1-2.145.365q.364-.578.706-1.17zm.656-3.495q-.318-.604-.66-1.196-.338-.582-.7-1.15c.733.093 1.436.216 2.097.367a21 21 0 0 1-.737 1.98zM11.51 3.945a21 21 0 0 1 1.354 1.634q-1.358-.065-2.718 0c.447-.59.905-1.138 1.365-1.634zM6.214 1.14c.77-.445 2.47.19 4.264 1.783q.173.153.345.318a24 24 0 0 0-1.96 2.426 24 24 0 0 0-3.068.477q-.088-.352-.158-.71v.002c-.433-2.21-.146-3.876.577-4.294zM5.09 13.183q-.285-.082-.566-.177A8.3 8.3 0 0 1 1.84 11.58a2.03 2.03 0 0 1-.857-1.368c0-.837 1.248-1.905 3.33-2.63q.393-.138.792-.25a24 24 0 0 0 1.12 2.904 24 24 0 0 0-1.134 2.946zm5.326 4.48a8.3 8.3 0 0 1-2.575 1.61 2.03 2.03 0 0 1-1.612.062c-.725-.42-1.027-2.034-.616-4.2q.074-.385.168-.764a23 23 0 0 0 3.1.448 24 24 0 0 0 1.974 2.44q-.214.207-.438.403zm1.122-1.112a22 22 0 0 1-1.384-1.656q.66.026 1.346.026.703 0 1.388-.03a21 21 0 0 1-1.35 1.66m5.967 1.367a2.03 2.03 0 0 1-.753 1.428c-.725.42-2.275-.126-3.947-1.564q-.287-.246-.578-.526a23 23 0 0 0 1.928-2.448 23 23 0 0 0 3.115-.48q.07.284.124.556a8.3 8.3 0 0 1 .11 3.035zm.834-4.907q-.19.063-.388.12a23 23 0 0 0-1.164-2.913 23 23 0 0 0 1.12-2.87q.352.101.683.215c2.13.732 3.428 1.816 3.428 2.65 0 .89-1.403 2.044-3.68 2.798z"/><path fill="#61dafb" d="M11.5 8.159a2.054 2.054 0 1 1-2.054 2.052A2.054 2.054 0 0 1 11.5 8.16"/></svg>