<svg xmlns="http://www.w3.org/2000/svg" data-name="Layer 1" viewBox="0 0 32 32"><path d="m31.77 10.37-4.6-2.55a.5.5 0 0 0-.68.17l-.38.63a5 5 0 0 1-6.7 1.73 4.62 4.62 0 0 1-1.79-6.45l.38-.63a.46.46 0 0 0-.18-.65L13.21.06a.51.51 0 0 0-.68.18L.09 21a.46.46 0 0 0 .18.65l4.6 2.55a.5.5 0 0 0 .68-.2l.63-1a5 5 0 0 1 6.71-1.73 4.62 4.62 0 0 1 1.79 6.45L14 28.73a.48.48 0 0 0 .18.65l4.61 2.56a.5.5 0 0 0 .67-.18L32 11a.46.46 0 0 0-.23-.63m-20.68-.95-1.55-.86A.38.38 0 0 1 9.4 8a.41.41 0 0 1 .54-.14l1.55.87a.37.37 0 0 1 .15.52.42.42 0 0 1-.55.17m5.24 2.9L13.85 11a.38.38 0 0 1-.15-.53.42.42 0 0 1 .55-.14l2.47 1.38a.37.37 0 0 1 .15.52.39.39 0 0 1-.54.09m5.23 2.91-2.48-1.38a.37.37 0 0 1-.15-.52.41.41 0 0 1 .55-.14L22 14.57a.37.37 0 0 1 .14.52.41.41 0 0 1-.58.14m4.3 2.39-1.55-.86a.37.37 0 0 1-.14-.52.39.39 0 0 1 .54-.14l1.55.86a.37.37 0 0 1 .14.52.41.41 0 0 1-.54.14" style="fill:#206055"/></svg>