<svg xmlns="http://www.w3.org/2000/svg" viewBox="0 0 64.79 64.79"><path fill="#0a66c2" d="M55.204 55.204h-9.6V40.17c0-3.585-.064-8.2-4.993-8.2-5 0-5.765 3.906-5.765 7.939v15.294h-9.6V24.287h9.216v4.225h.129a10.1 10.1 0 0 1 9.093-4.994c9.73 0 11.524 6.4 11.524 14.726Zm-40.79-35.143a5.571 5.571 0 1 1 5.57-5.572 5.571 5.571 0 0 1-5.57 5.572m4.8 35.143h-9.61V24.287h9.61ZM59.99.004H4.78a4.728 4.728 0 0 0-4.781 4.67v55.439a4.731 4.731 0 0 0 4.781 4.675h55.21a4.741 4.741 0 0 0 4.8-4.675V4.67A4.738 4.738 0 0 0 59.99 0" data-name="Path 2520"/></svg>