<svg xmlns="http://www.w3.org/2000/svg" width="128" height="128" fill="none"><path fill="#44403C" d="M64.112 0c3.425 0 6.209 2.77 6.209 6.197v7.421c2.402.284 4.763.737 7.06 1.345l2.297-5.533a6.194 6.194 0 0 1 3.358-3.353 6.215 6.215 0 0 1 6.763 1.341 6.195 6.195 0 0 1 1.818 4.38c0 .814-.16 1.62-.472 2.371l-2.24 5.387a50.837 50.837 0 0 1 6.63 4.318l5.137-5.128a6.216 6.216 0 0 1 8.6.173 6.19 6.19 0 0 1 .173 8.585l-5.031 5.023a51.945 51.945 0 0 1 5.169 7.744l5.121-2.114a6.219 6.219 0 0 1 6.904 1.238 6.192 6.192 0 0 1-2.156 10.209l-5.308 2.187a50.983 50.983 0 0 1 1.299 6.878h6.573a6.212 6.212 0 0 1 4.244 1.892 6.192 6.192 0 0 1 0 8.604 6.212 6.212 0 0 1-4.244 1.891h-6.573a51.191 51.191 0 0 1-1.705 8.32l5.389 2.228a6.212 6.212 0 0 1 3.497 3.336 6.175 6.175 0 0 1 .037 4.83 6.215 6.215 0 0 1-8.282 3.282l-5.453-2.253a49.637 49.637 0 0 1-3.571 5.614l4.09 4.083a6.19 6.19 0 0 1-.173 8.585 6.218 6.218 0 0 1-8.6.173l-3.773-3.767a51.139 51.139 0 0 1-7.937 5.484l2.183 5.266a6.186 6.186 0 0 1-1.272 6.846 6.215 6.215 0 0 1-8.868-.04 6.19 6.19 0 0 1-1.327-2.059l-2.191-5.266a51.302 51.302 0 0 1-7.166 1.467v4.618c0 1.643-.654 3.22-1.819 4.382a6.215 6.215 0 0 1-8.78 0 6.192 6.192 0 0 1-1.818-4.382v-4.497a51.862 51.862 0 0 1-8.822-1.766l-2.256 5.444a6.22 6.22 0 0 1-5.757 4 6.22 6.22 0 0 1-5.818-3.911 6.188 6.188 0 0 1 .108-4.828l2.313-5.574a51.747 51.747 0 0 1-6.817-4.706l-3.303 3.289a6.217 6.217 0 0 1-8.6-.173 6.192 6.192 0 0 1-.173-8.585l3.474-3.467a51.428 51.428 0 0 1-3.725-5.695l-6.07 2.511a6.218 6.218 0 0 1-4.665-.105 6.203 6.203 0 0 1-3.274-3.319 6.187 6.187 0 0 1-.034-4.657 6.202 6.202 0 0 1 3.225-3.366l6.07-2.511a51.265 51.265 0 0 1-1.664-8.83H6.208a6.214 6.214 0 0 1-4.39-1.816 6.192 6.192 0 0 1 0-8.764 6.214 6.214 0 0 1 4.39-1.816h6.184a52.867 52.867 0 0 1 1.559-7.129L7.377 48.81a6.202 6.202 0 0 1-3.225-3.366 6.187 6.187 0 0 1 .035-4.657 6.203 6.203 0 0 1 3.273-3.318 6.218 6.218 0 0 1 4.664-.106l6.615 2.73a51.33 51.33 0 0 1 5.072-7.566l-5.032-5.023a6.191 6.191 0 0 1 .173-8.585 6.214 6.214 0 0 1 8.6-.173l5.137 5.128a50.056 50.056 0 0 1 5.235-3.524l-2.565-6.18a6.187 6.187 0 0 1 .106-4.657 6.203 6.203 0 0 1 3.324-3.268 6.218 6.218 0 0 1 4.665-.034c1.5.595 2.71 1.75 3.372 3.219l2.475 5.962a51.538 51.538 0 0 1 8.603-1.782V6.197C57.904 2.771 60.687 0 64.112 0Zm-6.208 27.172a39.433 39.433 0 0 0-16.334 6.337A39.351 39.351 0 0 0 29.605 46.29l4.95 1.612a6.213 6.213 0 0 1 3.8 3.04 6.189 6.189 0 0 1-2.765 8.507 6.215 6.215 0 0 1-4.865.232l-5.3-1.717A39.006 39.006 0 0 0 26.52 76.35a39.058 39.058 0 0 0 9.408 15.842l3.717-5.103a6.211 6.211 0 0 1 8.663-1.373 6.183 6.183 0 0 1 1.376 8.648l-3.814 5.25a39.144 39.144 0 0 0 18.243 4.471c6.59 0 12.798-1.62 18.252-4.472l-2.857-3.92a6.189 6.189 0 0 1 1.49-8.49 6.216 6.216 0 0 1 8.55 1.206l2.758 3.783a39.432 39.432 0 0 0 7.036-9.94 39.17 39.17 0 0 0 2.76-24.06l-4.602 1.49a6.214 6.214 0 0 1-6.633-1.87 6.188 6.188 0 0 1 2.803-9.91l4.058-1.32a39.129 39.129 0 0 0-11.54-12.688A39.21 39.21 0 0 0 70.32 27.35v3.621c0 1.644-.654 3.22-1.819 4.382a6.214 6.214 0 0 1-8.78 0 6.192 6.192 0 0 1-1.818-4.382v-3.8Z"/><g clip-path="url(#a)"><path fill="#fff" d="M51.454 66.007H76.92v17.394H51.454z"/><path fill="#60A5FA" d="M64.857 91.094c-5.674 0-10.667-1.973-14.98-5.92-4.312-3.945-6.467-9.287-6.465-16.023 0-4.237 1.608-8.83 4.825-13.781 3.217-4.95 8.087-10.302 14.61-16.056.267-.223.58-.401.938-.535a3.04 3.04 0 0 1 1.072-.2c.357 0 .715.066 1.072.2.358.134.67.312.938.535C73.39 45.068 78.26 50.42 81.477 55.37c3.217 4.95 4.825 9.544 4.825 13.781 0 6.735-2.156 12.076-6.468 16.024-4.313 3.948-9.305 5.92-14.977 5.919Zm.737-8.028a2.14 2.14 0 0 0 1.375-.637c.38-.38.57-.836.569-1.37 0-.624-.201-1.126-.604-1.506-.402-.38-.915-.547-1.541-.5-1.832.133-3.775-.37-5.83-1.507-2.056-1.139-3.351-3.2-3.887-6.187a1.97 1.97 0 0 0-.703-1.204 1.998 1.998 0 0 0-1.308-.469 1.94 1.94 0 0 0-1.541.704c-.402.47-.536 1.015-.402 1.638.76 4.058 2.546 6.957 5.361 8.697 2.815 1.74 5.652 2.52 8.511 2.341Z"/></g><defs><clipPath id="a"><path fill="#fff" d="M42.742 36.571h43.56v54.857h-43.56z"/></clipPath></defs></svg>