<svg xmlns="http://www.w3.org/2000/svg" id="ACDA" width="341.14" height="341.73" version="1.1"><defs id="defs1"><style id="style1">.cls-2{fill:#982120}</style></defs><path id="path1" d="M170.43 341.73c-24.51-24.48-49.02-48.96-73.52-73.41 11.84-11.73 23.73-23.51 36.09-35.75-10.08-6.59-17.59-14.2-23.77-23.51-12.06 12.14-23.77 23.93-35.24 35.48L0 170.31c24-24.04 48.65-48.75 73.76-73.9 11.64 11.81 23.41 23.75 35.44 35.96 6.3-9.35 13.63-16.97 23.18-23.04-12.23-12.11-24.13-23.91-35.88-35.54C121.51 48.85 146.14 24.28 170.49 0c24.2 24.24 48.88 48.96 74.15 74.26l-35.72 35c9.56 6.17 16.97 13.69 22.94 22.7l35.12-35.24L341.14 171c-56.55 56.56-113.66 113.67-170.72 170.73zm53.33-140.79c17.35-35.01 2.34-66.56-19.81-81.1-24.13-15.85-56.12-12.47-76.52 8.21-20.69 20.98-23.44 52.95-6.56 77.39 14.55 21.06 45.73 35.57 79.51 18.5.16.05.37.05.47.15 7.1 7.02 14.17 14.08 21.29 21.08 7.48 7.37 17.2 7.76 23.96 1.02 6.98-6.96 6.51-16.58-1.2-24.26-7.07-7.04-14.16-14.06-21.14-21z" class="cls-2"/><path id="path10" d="M170.69 217.43c-26.13-.01-47.09-21.02-46.9-47 .2-25.9 20.98-46.56 46.86-46.57 26.04-.01 46.94 20.96 46.87 47.03-.07 25.77-20.97 46.55-46.83 46.54m-33.8-46.67c.05 18.42 15.3 33.65 33.73 33.7 18.44.05 33.63-15.1 33.72-33.64.09-18.72-15.31-34.14-33.91-33.94-18.49.2-33.59 15.46-33.53 33.89z" class="cls-2"/></svg>