<svg xmlns="http://www.w3.org/2000/svg" xml:space="preserve" viewBox="0 -38.41 446.2 545.3"><defs><clipPath id="a" clipPathUnits="userSpaceOnUse"><path d="m239.032 373.393-42.134-24.315a5.09 5.09 0 0 1-2.545-4.407v-48.666c0-1.818.969-3.497 2.544-4.408l42.134-24.333a5.09 5.09 0 0 1 5.09 0l42.124 24.333a5.09 5.09 0 0 1 2.543 4.408v48.667a5.09 5.09 0 0 1-2.545 4.406l-42.123 24.315a5.09 5.09 0 0 1-5.088 0"/></clipPath><clipPath id="c" clipPathUnits="userSpaceOnUse"><path d="M195.4 292.914a5.1 5.1 0 0 1 1.497-1.317l36.315-20.973 5.845-3.36c.9-.52 1.928-.741 2.938-.665q.506.042.999.184l44.43 81.357a5 5 0 0 1-1.181.938l-27.588 15.925-14.579 8.39c-.417.24-.864.413-1.323.525z"/></clipPath><clipPath id="e" clipPathUnits="userSpaceOnUse"><path d="m239.032 373.393-42.134-24.315a5.09 5.09 0 0 1-2.545-4.407v-48.666c0-1.818.97-3.497 2.544-4.408l42.134-24.333a5.09 5.09 0 0 1 5.09 0l42.124 24.333a5.09 5.09 0 0 1 2.543 4.408v48.667a5.09 5.09 0 0 1-2.545 4.406l-42.123 24.315a5.09 5.09 0 0 1-5.088 0"/></clipPath><clipPath id="f" clipPathUnits="userSpaceOnUse"><path d="m237.626 382.332-.579-.332h.774z"/></clipPath><clipPath id="h" clipPathUnits="userSpaceOnUse"><path d="M241.07 374.049a5.1 5.1 0 0 1-2.038-.656l-42.014-24.245 45.293-82.513a5.1 5.1 0 0 1 1.81.629l42.124 24.333a5.1 5.1 0 0 1 2.457 3.476l-46.177 78.891a5.4 5.4 0 0 1-1.455.085"/></clipPath><clipPath id="j" clipPathUnits="userSpaceOnUse"><path d="m239.032 373.393-42.134-24.315a5.09 5.09 0 0 1-2.545-4.407v-48.666c0-1.818.97-3.497 2.544-4.408l42.134-24.333a5.09 5.09 0 0 1 5.09 0l42.124 24.333a5.09 5.09 0 0 1 2.543 4.408v48.667a5.09 5.09 0 0 1-2.545 4.406l-42.123 24.315a5.09 5.09 0 0 1-5.088 0"/></clipPath><clipPath id="k" clipPathUnits="userSpaceOnUse"><path d="m290.279 292.38-.279.477v-.638z"/></clipPath><clipPath id="m" clipPathUnits="userSpaceOnUse"><path d="m239.032 373.393-42.134-24.315a5.09 5.09 0 0 1-2.545-4.407v-48.666c0-1.818.97-3.497 2.544-4.408l42.134-24.333a5.09 5.09 0 0 1 5.09 0l42.124 24.333a5.09 5.09 0 0 1 2.543 4.408v48.667a5.09 5.09 0 0 1-2.545 4.406l-42.123 24.315a5.09 5.09 0 0 1-5.088 0"/></clipPath><clipPath id="n" clipPathUnits="userSpaceOnUse"><path d="m286.351 291.598-42.177-24.334a5.1 5.1 0 0 0-1.861-.633l.84-1.53L290 292.219v.638l-1.158 1.979c-.347-1.348-1.263-2.528-2.491-3.238"/></clipPath><clipPath id="p" clipPathUnits="userSpaceOnUse"><path d="m239.032 373.393-42.134-24.315a5.09 5.09 0 0 1-2.545-4.407v-48.666c0-1.818.97-3.497 2.544-4.408l42.134-24.333a5.09 5.09 0 0 1 5.09 0l42.124 24.333a5.09 5.09 0 0 1 2.543 4.408v48.667a5.09 5.09 0 0 1-2.545 4.406l-42.123 24.315a5.09 5.09 0 0 1-5.088 0"/></clipPath><clipPath id="q" clipPathUnits="userSpaceOnUse"><path d="m286.351 291.598-42.177-24.334a5.1 5.1 0 0 0-1.861-.633l.84-1.53L290 292.219v.638l-1.158 1.979c-.347-1.348-1.263-2.528-2.491-3.238"/></clipPath><linearGradient id="b" x1="0" x2="1" y1="0" y2="0" gradientTransform="scale(-86.48019 86.48019)rotate(-63.886 1.799 4.453)" gradientUnits="userSpaceOnUse" spreadMethod="pad"><stop offset="0" style="stop-opacity:1;stop-color:#41873f"/><stop offset=".529" style="stop-opacity:1;stop-color:#41873f"/><stop offset="1" style="stop-opacity:1;stop-color:#3fae2a"/></linearGradient><linearGradient id="d" x1="0" x2="1" y1="0" y2="0" gradientTransform="scale(132.79816 -132.79816)rotate(-36.459 -2.712 -3.873)" gradientUnits="userSpaceOnUse" spreadMethod="pad"><stop offset="0" style="stop-opacity:1;stop-color:#41873f"/><stop offset=".138" style="stop-opacity:1;stop-color:#41873f"/><stop offset=".697" style="stop-opacity:1;stop-color:#6cc04a"/><stop offset=".908" style="stop-opacity:1;stop-color:#6cc04a"/><stop offset="1" style="stop-opacity:1;stop-color:#6cc04a"/></linearGradient><linearGradient id="g" x1="0" x2="1" y1="0" y2="0" gradientTransform="matrix(97.417 0 0 -97.417 192.862 382.166)" gradientUnits="userSpaceOnUse" spreadMethod="pad"><stop offset="0" style="stop-opacity:1;stop-color:#6cc04a"/><stop offset=".092" style="stop-opacity:1;stop-color:#6cc04a"/><stop offset=".303" style="stop-opacity:1;stop-color:#6cc04a"/><stop offset=".862" style="stop-opacity:1;stop-color:#41873f"/><stop offset="1" style="stop-opacity:1;stop-color:#41873f"/></linearGradient><linearGradient id="i" x1="0" x2="1" y1="0" y2="0" gradientTransform="matrix(97.417 0 0 -97.417 192.862 320.348)" gradientUnits="userSpaceOnUse" spreadMethod="pad"><stop offset="0" style="stop-opacity:1;stop-color:#6cc04a"/><stop offset=".092" style="stop-opacity:1;stop-color:#6cc04a"/><stop offset=".303" style="stop-opacity:1;stop-color:#6cc04a"/><stop offset=".862" style="stop-opacity:1;stop-color:#41873f"/><stop offset="1" style="stop-opacity:1;stop-color:#41873f"/></linearGradient><linearGradient id="l" x1="0" x2="1" y1="0" y2="0" gradientTransform="matrix(97.417 0 0 -97.417 192.862 292.538)" gradientUnits="userSpaceOnUse" spreadMethod="pad"><stop offset="0" style="stop-opacity:1;stop-color:#6cc04a"/><stop offset=".092" style="stop-opacity:1;stop-color:#6cc04a"/><stop offset=".303" style="stop-opacity:1;stop-color:#6cc04a"/><stop offset=".862" style="stop-opacity:1;stop-color:#41873f"/><stop offset="1" style="stop-opacity:1;stop-color:#41873f"/></linearGradient><linearGradient id="o" x1="0" x2="1" y1="0" y2="0" gradientTransform="matrix(97.417 0 0 -97.417 192.862 279.968)" gradientUnits="userSpaceOnUse" spreadMethod="pad"><stop offset="0" style="stop-opacity:1;stop-color:#6cc04a"/><stop offset=".092" style="stop-opacity:1;stop-color:#6cc04a"/><stop offset=".303" style="stop-opacity:1;stop-color:#6cc04a"/><stop offset=".862" style="stop-opacity:1;stop-color:#41873f"/><stop offset="1" style="stop-opacity:1;stop-color:#41873f"/></linearGradient><linearGradient id="r" x1="0" x2="1" y1="0" y2="0" gradientTransform="scale(-136.49806 136.49806)rotate(-63.886 .986 3.099)" gradientUnits="userSpaceOnUse" spreadMethod="pad"><stop offset="0" style="stop-opacity:1;stop-color:#41873f"/><stop offset=".529" style="stop-opacity:1;stop-color:#41873f"/><stop offset="1" style="stop-opacity:1;stop-color:#3fae2a"/></linearGradient></defs><g clip-path="url(#a)" transform="matrix(4.65149 0 0 -4.65149 -904.03 1740)"><path d="m239.032 373.393-42.134-24.315a5.09 5.09 0 0 1-2.545-4.407v-48.666c0-1.818.969-3.497 2.544-4.408l42.134-24.333a5.09 5.09 0 0 1 5.09 0l42.124 24.333a5.09 5.09 0 0 1 2.543 4.408v48.667a5.09 5.09 0 0 1-2.545 4.406l-42.123 24.315a5.09 5.09 0 0 1-5.088 0" style="fill:url(#b);stroke:none"/></g><g clip-path="url(#c)" transform="matrix(4.65149 0 0 -4.65149 -904.03 1740)"><path d="M195.4 292.914a5.1 5.1 0 0 1 1.497-1.317l36.315-20.973 5.845-3.36c.9-.52 1.928-.741 2.938-.665q.506.042.999.184l44.43 81.357a5 5 0 0 1-1.181.938l-27.588 15.925-14.579 8.39c-.417.24-.864.413-1.323.525z" style="fill:url(#d);stroke:none"/></g><g clip-path="url(#e)" transform="matrix(4.65149 0 0 -4.65149 -904.03 1740)"><g clip-path="url(#f)"><path d="m237.626 382.332-.579-.332h.774z" style="fill:url(#g);stroke:none"/></g></g><g clip-path="url(#h)" transform="matrix(4.65149 0 0 -4.65149 -904.03 1740)"><path d="M241.07 374.049a5.1 5.1 0 0 1-2.038-.656l-42.014-24.245 45.293-82.513a5.1 5.1 0 0 1 1.81.629l42.124 24.333a5.1 5.1 0 0 1 2.457 3.476l-46.177 78.891a5.4 5.4 0 0 1-1.455.085" style="fill:url(#i);stroke:none"/></g><g clip-path="url(#j)" transform="matrix(4.65149 0 0 -4.65149 -904.03 1740)"><g clip-path="url(#k)"><path d="m290.279 292.38-.279.477v-.638z" style="fill:url(#l);stroke:none"/></g></g><g clip-path="url(#m)" transform="matrix(4.65149 0 0 -4.65149 -904.03 1740)"><g clip-path="url(#n)"><path d="m286.351 291.598-42.177-24.334a5.1 5.1 0 0 0-1.861-.633l.84-1.53L290 292.219v.638l-1.158 1.979c-.347-1.348-1.263-2.528-2.491-3.238" style="fill:url(#o);stroke:none"/></g></g><g clip-path="url(#p)" transform="matrix(4.65149 0 0 -4.65149 -904.03 1740)"><g clip-path="url(#q)"><path d="m286.351 291.598-42.177-24.334a5.1 5.1 0 0 0-1.861-.633l.84-1.53L290 292.219v.638l-1.158 1.979c-.347-1.348-1.263-2.528-2.491-3.238" style="fill:url(#r);stroke:none"/></g></g></svg>