<svg xmlns="http://www.w3.org/2000/svg" width="2500" height="2500" fill="none" viewBox="-29.304 -37.584 469.334 496.227"><g fill="#e7352c"><path d="M131.967 298.073a28.186 28.186 0 0 1-33.688 27.647 28.185 28.185 0 0 1-22.147-22.147 28.19 28.19 0 0 1 47.579-25.432 28.2 28.2 0 0 1 8.256 19.932m245.94-29.342A292.17 292.17 0 0 0 130.305 21.129a185.3 185.3 0 0 0-40.95 29.522v27.236A231.984 231.984 0 0 1 321.15 309.49h27.237a195.2 195.2 0 0 0 29.521-40.759z"/><path d="M399.961 183.228A183.22 183.22 0 0 0 286.193 13.675 183.2 183.2 0 0 0 215.783.002c-6.475 0-12.761 0-19.046.953l-4.19 12.19a315.22 315.22 0 0 1 193.13 192.939l12.189-4.381c0-6.095 1.143-12.19 1.143-19.046M217.891 399.964A217.89 217.89 0 0 1 .001 183.026 216.37 216.37 0 0 1 63.806 28.941l12.38 11.619a201.127 201.127 0 0 0 0 285.695 201.133 201.133 0 0 0 285.695 0l11.619 11.618a216.18 216.18 0 0 1-155.609 62.091"/><path d="M215.438 322.074a126.65 126.65 0 0 0-49.711-112.564 124 124 0 0 0-63.805-25.903 11.615 11.615 0 0 1-10.095-12.189 11.24 11.24 0 0 1 7.945-9.865 11.2 11.2 0 0 1 4.436-.42A149.516 149.516 0 0 1 237.532 324.55a130.4 130.4 0 0 1-4.952 25.713l33.14 9.332a184 184 0 0 0 28.57-10.856 203 203 0 0 0 3.619-39.045 209.51 209.51 0 0 0-177.702-206.843 92.2 92.2 0 0 0-33.332 0 72.57 72.57 0 0 0-35.997 22.284 71.234 71.234 0 0 0 31.807 114.278 165 165 0 0 0 17.904 3.238 66.856 66.856 0 0 1 55.615 65.9 66.1 66.1 0 0 1-10.666 35.998l22.856 14.666a169.7 169.7 0 0 0 34.283 5.713 125.3 125.3 0 0 0 12.571-43.806"/></g></svg>