<svg xmlns="http://www.w3.org/2000/svg" viewBox="39.58 22.96 782.48 454.07"><path d="M822.054 464.785c-23.57 8.913-50.086-1.169-61.781-23.49l-112.47-155.54-16.307-21.727L500.98 441.525c-11.004 21.354-36.148 31.223-58.74 23.056l168.142-225.578L453.948 35.178c23.21-8.384 49.077.716 61.986 21.727l116.559 157.457L749.742 57.52c11.093-21.002 36.166-30.356 58.305-21.753l-60.708 80.544-82.23 107.024c-9.674 8.639-9.674 23.773 0 32.412l156.613 209.04ZM39.626 236.192l13.701-67.66C90.953 34.743 244.32-20.929 349.837 61.94c61.781 48.515 77.195 117.25 74.179 194.7H75.949c-5.624 138.337 94.193 221.87 221.871 179.235 42.074-15.337 73.744-50.305 84.173-93.759 6.748-21.727 17.893-25.459 38.29-19.17a176.628 176.628 0 0 1-84.402 129.007c-77.627 42.452-173.75 30.167-238.205-30.444-31.082-34.942-49.844-79.112-53.5-125.76 0-7.67-2.556-14.826-4.345-21.728-.17-12.9-.256-25.51-.256-37.83zm36.757-9.356h314.76c-1.967-100.276-65.257-171.413-149.66-172.078-93.963-1.278-161.189 68.3-165.33 171.644Z" style="stroke-width:25.56118393"/></svg>