<svg xmlns="http://www.w3.org/2000/svg" viewBox="12 5.47 436.63 170.53"><path d="M96.945 182.034c-7.282-5.728-15.05-11.22-20.359-18.952-11.17-13.637-19.77-29.425-25.648-46.017-3.554-10.788-4.771-22.355-9.352-32.727-4.792-7.533.821-15.768 9.073-18.162 3.673-.705 10.133-4.17 2.335-1.694-6.99 5.129-7.667-4.655-.498-5.275 4.892-.65 6.693-4.655 5.02-8.26-5.252-3.425 12.733-7.188 3.684-12.298-9.427-10.17 13.186-12.129 7.607-.578-1.335 8.882 15.801-1.628 11.825 8.63 4.042 4.925 15.134 1.12 14.859 8.03 5.887.405 7.907 5.359 13.434 5.739 5.727 2.586 16.11 4.625 18.06 11.079-5.683 4.499-18.841-9.293-19.473 3.16 1.716 18.396 1.279 37.347 8.01 54.865 3.183 10.608 10.9 18.958 17.87 27.22 6.67 8.091 15.702 13.787 24.91 18.583 8.076 3.81 16.783 6.335 25.585 7.92 3.57-2.73 9.873-12.882 15.443-8.601.264 4.81-11.055 10.055-.533 9.523 6.178-1.864 10.463 4.778 15.551-1.213 4.687 5.552 19.482-3.547 16.147 7.802-4.51 2.91-11.087 1.15-15.604 5.153-7.448-3.72-13.377 3.329-21.622 2.438-9.156 1.64-18.472 2.302-27.755 2.316-15.23-1.203-30.781-1.71-45.27-7.013-8.161-2.372-16.126-7.019-23.3-11.668zm12.862 5.573c7.97 3.446 15.762 7.079 24.497 8.174 13.856 1.928 28.166 4.892 42.073 2.188-6.294-2.842-12.801 1.107-19.071-2.032-7.52 1.618-15.59-.413-23.236-1.412-8.694-3.873-18.076-6.536-26.218-11.562-10.173-3.716 5.262 4.765 8.009 5.452 6.36 3.61-6.994-1.85-8.876-3.351-5.327-2.988-6.005-2.364-.528.67 1.104.646 2.194 1.323 3.35 1.873zM94.642 176.89c7.723 2.86-.034-5.431-3.573-4.95-1.568-2.72-5.99-4.438-2.87-5.899-5.612 1.948-5.879-7.408-8.516-6.071-5.937-1.875-2.31-8.515-9.382-12.593-.646-4.297-7.026-8.024-9.061-14.506-.899-3.318-7.208-12.847-3.333-3.979 3.3 8.538 9.107 15.849 13.94 23.152 3.751 6.953 8.182 14.22 15.015 18.558 2.303 2.21 4.527 5.595 7.78 6.288zm-22.247-24.426c.27-1.167 1.412 2.524 0 0zm31.496 27.855c1.71-.766-2.46-.965 0 0zm4.192 1.529c-.434-2.112-1.914 1.18 0 0zm5.248 2.189c2.498-2.379-3.85-1.5 0 0zm8.994 5.013c1.518-2.244-4.86-.847 0 0zm-17.271-12.04c3.88-2.51-5.012-.034 0 0zm3.937 1.963c-.11-1.327-1.403.595 0 0zm19.674 12.28c3.163 1.996 18.47 4.375 8.885.819-1.604.338-17.773-4.574-8.885-.819zm-31.234-24.326c-.308-1.33-4.91-1.47 0 0zm9.16 5.338c2.383-1.662-4.948-1.282 0 0zm7.704 4.724c3.42-1.29-5.55-1.296 0 0zm-20.591-14.12c3.711 2.845 14.968.364 5.684-1.7-4.226-2.252-13.75-3.794-7.258 1.358l1.574.341zm25.809 15.751c1.546-2.634-6.483-1.504 0 0zm-7.843-6.233c9.075 2.568-7.631-5.739-2.239-.944l1.195.54 1.044.404zm15.724 9.088c8.594.082-7.763-1.185 0 0zm-36.997-23.58c-.336-1.6-2.121.135 0 0zm51.535 31.735c.23-2.89-2.804 2.152 0 0zm-36.868-22.753c-.52-1.522-2.685-.062 0 0zm-13.852-9.986c4.934-.296-6.755-2.174 0 0zm-16.41-10.607c-.614-2.365-5.369-4.252 0 0zm43.08 27.34c-.904-1.031-.425.225 0 0zm26.814 16.454c-.086-1.575-1.46.596 0 0zm-29.187-18.905c.482-2.03-4.208-.615 0 0zm-19.976-12.66c3.67-.393-5.88-2.482 0 0zm33.791 20.997c5.72-2.266-5.575-1.106 0 0zm-17.577-11.931c6.593.85-7.844-4.485-1.446-.478l1.446.478zm22.913 14.088c6.155-3.68 4.126 8.617 10.443 1.039 6.23-4.55-5.381 5.624 2.298.811 5.554-3.714 13.756 1.76 18.939 3.547 3.726-.183 7.349 3.223 11.17 1.15 7.353-1.98-14.382-2.937-8.684-6.451-6.73 1.958-11.701-2.335-15.012-6.645-7.548-1.743-16.276-5.602-20.043-12.282-1.536-2.508 2.219.353-1.326-3.747-4.548-4.045-6.82-8.637-9.873-13.555-3.647-1.946-4.072-7.673-4.44-.192.028-4.722-4.405-7.9-5.487-6.579-.02-4.547 4.744-2.267 1.41-5.632-.718-4.713-3.081-9.624-3.791-14.945-1.104-2.565-.156-8.059-3.767-2.252-1.316 6.137-.437-7.541 1.61-3.03 2.685-4.603-.965-4.062-1.114-3.423 1.749-3.883 1.107-9.392-.457-7.29.932-4.116 1.473-15.148-1.395-13.193 1.738-4.304 3.297-19.694-4.25-13.826-3.058.043-8.354 1.11-10.857 2.355 7.849 4.327-.79 1.563-3.985.875-.417 4.004-3.581 2.272-7.535 2.311 6.315.782-3.076 6.46-6.699 4.254-4.705 2.249 4.061 7.862.095 9.597.487 2.617-7.208-.945-6.604 5.098-4.568-1.921-.629 7.168 1.656 4.094 7.77 2.103 5.47 6.896 5.667 11.45-1.266 2.653-6.25-6.237-1.11-5.825-4.054-6.587-4.485-2.381-7.854.679-.784.222 8.594 4.354 2.709 6.396 5.178.8 5.325 5.33 6.38 8.198 3.111 3.241 2.474-3.58 6.198.316-2.356-3.47-12.482-9.778-4.33-7.755-.043-3.493-1.474-6.31 1.024-6.241 2.473-4.48-2.59 11.044 2.985 5.35 1.543-.673 1.925-4.484 4.7.36 4.028 3.964 1.454 6.836-4.23 3.207 1.018 3.45 7.604 4.682 6.366 10.077 1.312 4.744 3.148 2.997 4.748 2.722 1.255 4.61 1.968 1.22 2.028-.973 5.747 1.23 4.401 4.627 6.2 7.001 3.96 1.788-5.67-12.117 1.13-4.181 7.154 6.459 2.683 9.155-3.737 8.12 4.063-.328 5.373 5.493 10.456 5.288 4.634 2.205 7.772 10.673-.216 7.148-2.771-2.498-12.576-5.58-4.568-.828 7.397 3.425 13.271 5.474 20.405 9.774 5.106 3.645 7.311 7.819 9.246 8.645-4.29 2.05-12.93-1.636-6.515-2.766-4.002-.729-8.502-2.752-4.67 2.233 3.26 2.722 11.548 2.433 13.033 2.742-1.259 2.775-3.42 2.995.052 3.21-3.874 2.065 1.242 2.385 1.601 3.564zm-7.921-22.37c-2.357-2.465-2.967-7.081-.419-3.064 1.307.525 4.185 7.544.419 3.064zm25.797 16.387c1.47-.095.043 1.117 0 0zm-29.519-22.43c-.09-3.727.853 2.874 0 0zm-2.564-3.45c-2.964-5.728 3.738 1.622 0 0zm-31.07-21.445c1.741-.464.856 2.979 0 0zm24.728 13.404c1.07-4.017 1.257 3.37 0 0zm-17.47-12.148c-1.231-2.216 2.576 2.079 0 0zm14.993 4.806c-2.809-6.292 1.988-3.437.621 1.032l-.621-1.032zM85.779 117.18c-1.256-2.065-3.333-8.122-2.664-9.97.605 3.01 6.404 12.959 2.844 4.12-3.933-7.409 4.702 2.405 5.59 4.253.414 1.838-2.426-.502-.502 3.808-3.51-4.907-2.072 2.711-5.268-2.211zm-7.99-5.506c.328-4.8 1.828 3.29 0 0zm3.593 1.237c1.716-3.623 2.909 5.05 0 0zm-8.646-6.689c-2.975-2.956-5.128-5.681.14-1.834 2.029.079-4.51-6.197.488-1.993 5.255.958 2.595 8.616-.628 3.827zm4.542-.118c1.728-1.712.917 1.685 0 0zm2.794.896c-2.619-4.91 3.18 2.058 0 0zm-5.555-5.31c-8.648-7.696 10.867 4.025 1.413 1.427l-1.413-1.427zm24.78 14.398c-3.743-2.244-.993-15.798.284-6.528 3.638-1.177-.201 4.787 2.512 4.732-.427 3.763-1.641 5.116-2.797 1.796zm9.164 5.416c.367-4.084.773 2.793 0 0zm-1.592-1.573c.412-1.745.043 2.055 0 0zM76.214 99.16c-5.556-7.665 16.147 7.754 3.558 1.945-1.315-.344-2.898-.467-3.558-1.945zm17.649 9.358c-.526-6.455 1.174 1.07 0 0zm13.4 8.596c1.036-3.677.077 2.432 0 0zm-30.198-20.88c3.302-.706 13.684 5.8 4.15 1.859-1.06-1.173-3.318-.64-4.15-1.858zm28.356 14.134c.353-6.6 1.972-3.942.013.945l-.012-.945zm-25.898-16.43c1.345-1.974-3.572-8.923.709-2.493 1.85 1.47 5.355 2.462 2.26 3.08 4.867 4.295-1.188 1.164-2.97-.587zm24.496 14.368c.93-7.518.82 4.405 0 0zM76.713 86.994c1.027-.44.543 1.37 0 0zm6.39 3.803c1.644-3.45 3.033 3.848 0 0zm18.023 10.026c-.017-1.325.34 1.928 0 0zm-1.044-2.311c-2.502-6.172 2.327 3.267 0 0zm-1.536-4.046c-.42-2.55 1.427 3.203 0 0zm2.5-4.064c-1.717-3.025 2.167-13.331 2.6-6.94-1.811 4.98-.522 7.767.742 1.087 2.334-5.257-.504 10.374-3.342 5.853zm2.569-15.327c.748-.919.166 1.107 0 0zm-4.29 84.535c-1.018-.888.127.565 0 0zm8.837 4.47c4.916 1.262 4.891-.765.448-1.367-2.39-2.223-9.93-4.58-3.181-.275.447 1.132 1.86 1.105 2.733 1.642zm-17.454-11.593c2.708 2.02 10.201 5.724 3.858.769 2.139-2.485-4.093-3.807-2.026-5.47-5.258-3.217-4.148-2.93-.464-2.83-6.32-2.824.912-2.613.572-4.06-2.437-.481-12.103-4.297-6.417.313-5.78-2.947-1.377 1.098-3.125.67-5.91-1.611 5.265 4.503-.938 2.985 3.39 2.688 9.128 6.884 1.433 2.844-1.013 1.46 5.507 3.671 7.107 4.78zm9.243 5.31c11.239 3.622-5.51-4.424 0 0zm47.317 28.665c.145-2.23-1.536 1.902 0 0zm4.863 2.046c2.593-2.512.106 4.003 4.296-.615.046-3.305-.129-5.257-4.815-1.242-1.292.716-1.869 3.763.519 1.857zm-77.199-48.482c-.796-3.13-5.582-3.114 0 0zm5.193 3.403c-1.928-3.197-6.88-2.894 0 0zm29.544 17.817c2.884 2.562 13.247 1.88 3.503.316-1.443-2.134-9.164-1.62-3.503-.316zm40.612 25.082c4.44-3.725-4.301 1.662 0 0zm9.233 6.345c.028-1.196-1.914.523 0 0zm.014-1.674c4.916-5.209-4.763.308 0 0zM62.16 129.333c-4.19-5.978-2.605-8.665-6.645-13.546-.765-3.733-6.932-12.204-3.19-3.23 3.428 5.249 4.446 13.374 9.835 16.776zm95.826 60.01c9.044-5.846-3.712-2.546 0 0zm6.904 2.705c4.53-3.889-2.865-.814 0 0zm-91.497-58.63c1.296-1.928-3.348-.246 0 0zm90.056 56.783c4.385-2.827-1.01-2.393-.795.26l.795-.26zm-59.514-37.512c-.15-1.909-2.316.162 0 0zm3.678 2.117c-1.17-2.364-1.797.37 0 0zm62.872 37.306c5.618-4.053-3.405-.776-1.179.768l1.18-.768zm-2.151-1.04c4.577-3.835-4.832 1.7 0 0zm10.992 7.32c3.072-2.058-3.734-.666 0 0zM76.21 132.028c4.12.923 16.46 10.144 9.18.638-3.73-1.104-1.493-10.22-5.296-8.606 2.552 4.265 2.1 6.08-3.26 3.391-6.737-3.288-3.786 1.63-2.47 2.985-1.794.408 2.374 1.558 1.846 1.592zm-18.766-14.82c.738-3.05-6.79-16.78-3.554-6.88 1.168 2.074 1.049 6.004 3.554 6.88zm34.444 21.235c-2.121-1.774-.101-.251 0 0zm5.223 1.215c-.003-3.23-5.773-1.312 0 0zm45.261 28.533c-.863-2.207-3.412-.05 0 0zm2.174 1.588c-.321-1.235-1.254.239 0 0zm17.94 11.3c1.725-1.275-2.153-.163 0 0zm-95.668-61.478c4.935-1.911-5.288-1.363 0 0zm71.57 45.089c-.055-3.195-3.146.793 0 0zm-73.52-49.633c3.17-1.071-2.933-.706 0 0zm9.202 4.457c-.058-1.05-.974.397 0 0zm112.231 68.822c4.077-.827 13.366 2.075 14.868-1.081-4.95-.12-17.128-3.493-17.704.805l1.084.17 1.752.106zM76.995 120.25c.071-3.238-2.525-.12 0 0zm-24.193-16.782c-1.099-6.169-4.179-.934 0 0zm5.77 1.45c.07-1.98-5.281-1.782 0 0zm3.296 1.62c-.953-.773-.746.974 0 0zm20.745 13.307c.976-.897-2.312-.665 0 0zm-22.94-16.96c-.558-4.659-6.683-.698 0 0zm-11.829-7.674c-.168-2.15-1.152.81 0 0zm1.76-1.329c-.287-2.55-1.51.324 0 0zm9.72 5.802c4.111-1.614-7.487-3.34-.84-.305l.84.305zm130.098 80.36c2.631-2.413-3.344-.746 0 0zm15.717 8.146c1.054-3.118-2.655.411 0 0zM60.318 94.59c.433-3.017-3.259.598 0 0zm-13.83-9.267c-.743-4.259-.642-11.735 6.465-9.208-9.486 1.883 6.565 11.79 4.538 3.968 3.989.195 7.803-2.357 5.71 1.516 7.858-.868 13.307-7.682 20.898-6.727 5.913-.783 12.378-1.376 18.75-3.756 5.24-.378 10.282-6.018 7.41-9.362-7.144-.604-14.623.29-22.52 1.86-8.75 1.818-16.698 5.275-25.527 6.758-8.606 1.156 1.73 3.185-.735 3.637-4.49 1.558 5.356 2.61-.582 4.252-3.667-.698-7.484-1.957-5.917-5.822-8.244 1.07-15.488 4.491-8.975 12.88l.485.004zm19.864-10.117c1.933-7.12 10.355 5.86 3.168.946-.858-.642-2.27-1.166-3.168-.946zm.376-3.452c2.79-2.078 1.483 1.165 0 0zm3.542.056c.252-3.276 8.109 1.735 1.296 1.18l-1.296-1.18zm4.846-1.948c1.77-2.067.508 1.84 0 0zm1.24-.83c2.946-3.54 16.685-2.26 6.628-.345-2.695-2.03-4.762 1.197-6.629.345zm17.93-2.764c-.449-9.67 8.907 3.437 0 0zm5.087-.028c1.86-4.873 7.218-1.955.86-.979.139.519-.186 2.516-.86.98zM58.312 92.09c5.557-3.403-5.9-2.953 0 0zm4.11 1.142c1.948-2.072-4.235-.84 0 0zm-12.109-8.593c3.176-2.44-3.757-.928 0 0zM214.416 187.3c.092-2.83-2.427 1.275 0 0zm-16.675-11.38c.474-3.258-2.143.285 0 0zM219 188.398c4.44.015 13.453-1.378 3.792-1.374-1.516.236-8.833.186-3.792 1.374zM66.036 91.233c3.593-.246 5.621-3.963-.695-3.75-9.79-1.013 8.637 3.353-1.256 2.104-1.33.88 1.873 1.89 1.95 1.646zm3.164 1.602c-.375-2.307-1.11 1.226 0 0zm3.754-10.01c1.56-1.934-2.158-.517 0 0zM61.004 62.85c6.413-2.182 15.182-4.633 18.21 1.074-3.081-3.709-1.243-7.36 1.667-1.937 4.116 5.486 6.176-2.496 3.5-4.336 3.05 3.79 6.52 5.581 2.042.24 4.866-5.853-9.743.766-13.063.7-1.598.716-16.494 3.798-12.356 4.259zm3.758-7.198c3.658-2.76 12.65 1.642 6.88-2.743-.565-.499-12.637 3.325-6.88 2.743zm13.334.55c4.28.11-1.847-5.75 3.254-3.095-.838-2.736-5.938-3.248-8.432-4.342-1.41 2.502 2.87 7.471 5.178 7.438zM67.1 44.1c1.481-2.007-2.595 1.018 0 0zm5.45 1.305c6.898-.915-1.758-2.971-1.39-.074l1.39.074zM62.374 37.44c-4.856-6.34 9.134 1.066 4.2-5.572-4.153-3.307-8.144 3.722-4.2 5.572zm62.33 33.573c2.228-3.949-9.196-5.323-1.5-1.4.708.237.548 1.673 1.5 1.4z" style="fill:#000" transform="translate(-27.82 -24.715)"/><g style="font-size:40px;font-style:normal;font-weight:400;fill:#000;fill-opacity:1;stroke:none;font-family:Bitstream Vera Sans"><path d="M229.852 43.778c-.797 3.14-1.29 8.414-1.477 15.82 0 1.454-.656 2.18-1.968 2.18-1.313 0-2.227-.633-2.743-1.898-1.406-3.422-2.742-5.813-4.007-7.172-1.5-1.594-3.493-2.555-5.977-2.883-2.672-.422-9.328-.633-19.969-.633-2.437 0-4.031.258-4.781.774-.469.328-.703 1.03-.703 2.109v31.851c0 1.079.68 1.594 2.039 1.547 4.172-.046 10.219-.328 18.14-.843 1.547-.188 2.59-.692 3.13-1.512.538-.82 1.066-2.941 1.581-6.363.329-1.875 1.43-2.602 3.305-2.18 1.594.328 2.274 1.055 2.04 2.18-1.313 6.375-1.735 14.672-1.266 24.89.046 1.219-.727 1.875-2.32 1.969-1.313.14-2.134-.563-2.462-2.11-1.218-5.859-3.48-8.988-6.785-9.386-3.305-.399-8.683-.598-16.137-.598-.843 0-1.265.305-1.265.914v31.64c0 2.345.867 3.938 2.601 4.782 1.36.703 4.29 1.336 8.79 1.899 2.296.234 3.304 1.242 3.023 3.023-.281 1.547-2.344 2.156-6.188 1.828-11.109-.89-20.273-.844-27.492.14-2.015.282-3.023-.538-3.023-2.46 0-1.219 1.008-1.922 3.023-2.11 4.594-.515 6.89-4.546 6.89-12.093V58.895c0-3.093-.55-5.472-1.652-7.137-1.101-1.663-3.152-3.175-6.152-4.535-1.875-.843-2.578-1.992-2.11-3.445.235-.89.61-1.383 1.126-1.477.469-.14 1.71-.046 3.726.282 2.953.469 9.914.703 20.883.703 12.938 0 24.117-.281 33.54-.844 3.14-.187 4.71.07 4.71.774 0 .187-.023.375-.07.562zm45.703 89.367c0 1.875-1.055 2.696-3.164 2.461-6.469-.61-14.485-.515-24.047.281-1.922.188-3.105.141-3.55-.14-.446-.281-.669-1.055-.669-2.32 0-1.126 1.278-2.075 3.832-2.848 2.555-.774 3.832-3.082 3.832-6.926V60.02c0-3.797-.55-6.586-1.652-8.367-1.102-1.781-3.035-3.164-5.8-4.148-1.454-.516-2.18-1.243-2.18-2.18 0-1.406 1.054-2.46 3.164-3.164 3.187-1.031 6.492-2.625 9.914-4.781 2.812-1.688 4.593-2.532 5.343-2.532 1.735 0 2.602 1.196 2.602 3.586 0-.187-.094 2.157-.281 7.032-.14 4.64-.188 9.21-.14 13.71l.28 62.79c0 2.859.703 4.933 2.11 6.222 1.406 1.29 3.82 2.145 7.242 2.567 2.11.234 3.164 1.03 3.164 2.39zm64.125-4.711c0 .985-1.793 2.473-5.379 4.465-3.586 1.992-6.457 2.988-8.613 2.988-1.828 0-3.446-.89-4.852-2.671-1.406-1.782-2.39-2.672-2.953-2.672-.422 0-2.648.96-6.68 2.882-4.03 1.922-8.086 2.883-12.164 2.883-3.843 0-7.054-1.125-9.632-3.375-2.813-2.484-4.22-5.86-4.22-10.125 0-8.11 9.282-13.922 27.845-17.437 3.187-.61 4.804-1.899 4.851-3.867l.14-4.5c.282-7.688-3.117-11.532-10.195-11.532-2.015 0-3.925 1.805-5.73 5.414-1.805 3.61-4.395 5.555-7.77 5.836-3.843.375-5.765-1.242-5.765-4.851 0-2.25 2.86-4.875 8.578-7.875 6-3.14 11.765-4.711 17.297-4.711 9.515 0 14.226 4.523 14.133 13.57l-.282 28.969c-.047 3.047 1.242 4.57 3.868 4.57.515 0 1.5-.117 2.953-.351 1.453-.235 2.296-.352 2.53-.352 1.36 0 2.04.914 2.04 2.742zm-21.656-16.031c.047-1.172-.223-1.945-.809-2.32-.586-.375-1.512-.446-2.777-.211-11.297 2.015-16.946 5.695-16.946 11.039 0 5.39 2.93 8.086 8.79 8.086 2.343 0 4.757-.446 7.242-1.336 2.906-1.031 4.359-2.274 4.36-3.727zm74.109 7.664c0 4.969-1.91 8.918-5.73 11.848-3.82 2.93-9.036 4.394-15.645 4.394-4.406 0-8.812-.468-13.219-1.406-3.797-.844-6-1.617-6.61-2.32-.374-.657-.562-3.867-.562-9.633 0-2.484.563-3.774 1.688-3.867 1.125-.14 2.086.468 2.883 1.828 3.515 6.14 9.187 9.21 17.015 9.21 6.61 0 9.914-2.296 9.914-6.89 0-2.015-.75-3.703-2.25-5.062-1.64-1.547-4.828-3.352-9.562-5.414-6.844-3.047-11.414-5.72-13.711-8.016-2.484-2.437-3.727-5.719-3.727-9.844 0-5.062 1.946-9 5.836-11.812 3.61-2.719 8.438-4.078 14.485-4.078 3.797 0 7.265.304 10.406.914 3.375.61 5.133 1.36 5.273 2.25.375 2.625 1.149 6.422 2.32 11.39.141.61-.515 1.102-1.968 1.477-1.547.328-2.578.07-3.094-.774-3.703-6.046-8.39-9.07-14.062-9.07-6.422 0-9.633 2.063-9.633 6.188 0 2.297.867 4.125 2.602 5.484 1.546 1.172 5.18 3 10.898 5.484 6 2.579 10.078 4.899 12.234 6.961 2.813 2.672 4.219 6.258 4.22 10.758zm81.563 12.656c0 1.641-1.102 2.508-3.305 2.602-3.281.047-7.57.281-12.867.703-2.625.516-4.5.188-5.625-.984-7.407-7.97-13.688-16.313-18.844-25.032-.422-.75-.961-1.125-1.617-1.125-.797 0-2.18.704-4.149 2.11-2.203 1.219-3.304 2.953-3.304 5.203 0 1.594.047 3.89.14 6.89.094 3 .844 4.97 2.25 5.907.985.656 3.258 1.172 6.82 1.547 2.204.28 3.305 1.101 3.305 2.46 0 1.079-.176 1.747-.527 2.004-.352.258-1.277.317-2.777.176-4.688-.422-12.61-.187-23.766.703-2.813.235-4.336-.117-4.57-1.054-.094-.328-.141-.797-.141-1.407 0-1.453 1.43-2.554 4.29-3.304 2.577-.656 3.866-3.68 3.866-9.07V59.597c0-3.843-.375-6.515-1.125-8.015-1.031-1.922-3.187-3.422-6.468-4.5-1.547-.516-2.32-1.242-2.32-2.18 0-1.36 1.1-2.414 3.304-3.164a44.143 44.143 0 0 0 10.055-4.852c2.578-1.687 4.171-2.53 4.78-2.53 1.923 0 2.884 1.218 2.884 3.655 0-.328-.024 1.993-.07 6.961-.048 3.422-.071 8.016-.071 13.782l.14 44.015c0 1.219.329 1.828.985 1.828.703 0 1.781-.609 3.234-1.828 3.891-3.047 8.672-7.031 14.344-11.953 1.125-1.172 1.688-2.11 1.688-2.812 0-1.266-1.899-2.157-5.696-2.672-1.64-.188-2.414-1.102-2.32-2.742.14-1.641.96-2.344 2.461-2.11 3.375.469 8.297.727 14.766.774 4.5.047 8.976.07 13.43.07 1.452.047 2.179.914 2.179 2.601 0 1.594-1.149 2.461-3.445 2.602-3.61.14-7.008.961-10.196 2.461-4.453 2.016-9.21 5.555-14.273 10.617-.375.281-.563.633-.563 1.055 0 .656.797 2.226 2.391 4.71 5.86 8.907 11.39 15.634 16.594 20.18 3.328 2.86 6.445 4.29 9.351 4.29 2.157 0 3.492.152 4.008.457.516.304.774 1.113.774 2.425z" style="font-size:144px;font-family:High Tower Text;-inkscape-font-specification:High Tower Text" transform="translate(-27.82 -24.715)"/></g><g style="font-size:40px;font-style:normal;font-weight:400;line-height:89.99999762%;fill:#000;fill-opacity:1;stroke:none;font-family:Bitstream Vera Sans"><path d="M285.18 153.23c0 .164-.314.332-.943.505-.41.11-.756.484-1.039 1.122-1.64 3.645-3.108 6.585-4.402 8.818-.028.055-.096.077-.205.068-.1-.009-.169-.04-.205-.095-.22-.329-.78-1.472-1.682-3.432-.83-1.805-1.276-2.707-1.34-2.707-.1 0-.588.87-1.463 2.611-.993 1.942-1.581 3.05-1.763 3.323-.028.063-.092.09-.192.082a.274.274 0 0 1-.232-.11c-.666-1.039-2.197-3.883-4.594-8.531-.274-.547-.579-.893-.916-1.04-.583-.254-.875-.441-.875-.56 0-.355.196-.515.588-.478 1.759.182 3.3.146 4.62-.11.302-.054.452.046.452.301 0 .356-.205.584-.615.684-.538.127-.807.328-.807.601 0 .174.064.429.192.766.328.848.82 1.923 1.476 3.227.656 1.303 1.04 1.955 1.149 1.955.073 0 .46-.68 1.162-2.037.702-1.359 1.052-2.11 1.052-2.256 0-.356-.118-.739-.355-1.149-.283-.601-.61-.961-.984-1.08-.602-.21-.903-.415-.903-.615 0-.365.205-.515.615-.451 1.404.191 2.89.155 4.458-.11.3-.054.45.037.45.274 0 .346-.223.56-.67.642-.528.1-.792.37-.792.807 0 .21.059.456.178.738 1.403 3.436 2.214 5.155 2.433 5.155.082 0 .447-.67 1.094-2.01.693-1.431 1.176-2.584 1.45-3.46a.402.402 0 0 0 .026-.15c0-.391-.305-.697-.916-.916-.474-.155-.71-.328-.71-.52 0-.318.15-.441.45-.368.41.091 1.149.16 2.215.205 1.003.036 1.664.032 1.983-.014.374-.045.56.06.56.315zm12.114 7.752c0 .391-.529.88-1.586 1.462-1.203.648-2.438.971-3.705.971-1.377 0-2.534-.451-3.473-1.353-1.003-.957-1.504-2.233-1.504-3.828 0-1.805.56-3.254 1.682-4.348 1.048-1.021 2.333-1.531 3.855-1.531.903 0 1.746.287 2.53.86.701.511 1.166 1.095 1.394 1.75.082.229.205.356.37.384.236.045.355.205.355.478 0 .374-.447.693-1.34.957l-6.303 1.873c.41 2.17 1.522 3.254 3.336 3.254 1.048 0 2.242-.383 3.582-1.148.2-.119.397-.178.588-.178.146 0 .219.132.219.397zm-3.24-5.483c0-.501-.203-.94-.609-1.32-.405-.377-.904-.567-1.497-.567-1.677 0-2.516 1.208-2.516 3.623v.329l3.72-1.122c.6-.173.902-.487.902-.943zm17.062 1.641c0 1.804-.629 3.317-1.887 4.539-1.203 1.176-2.634 1.763-4.293 1.763-.938 0-1.918-.154-2.94-.464-.983-.301-1.48-.575-1.49-.82-.008-.21-.004-.944.014-2.202.028-1.54.041-2.661.041-3.363 0-1.057-.009-2.59-.027-4.6-.018-2.01-.027-3.343-.027-4 0-.656-.1-1.107-.301-1.353-.182-.219-.579-.392-1.19-.52-.237-.082-.355-.232-.355-.451 0-.191.178-.35.533-.478.51-.183 1.144-.488 1.9-.916.602-.338.976-.506 1.122-.506.282 0 .423.232.423.697 0 .036-.013.51-.04 1.422a82.83 82.83 0 0 0-.014 2.611l.027 4.73c0 .447.155.575.465.383 1.094-.628 2.233-.943 3.418-.943 1.367 0 2.479.412 3.336 1.237.857.825 1.285 1.903 1.285 3.234zm-2.187 1.217c0-1.25-.347-2.275-1.04-3.077-.656-.756-1.453-1.134-2.392-1.134-.647 0-1.285.168-1.914.505-.63.338-.944.693-.944 1.067v3.664c0 1.76.971 2.639 2.913 2.639 1.011 0 1.827-.326 2.447-.978.62-.652.93-1.547.93-2.686zm24.308 3.582a.515.515 0 0 1 .055.177c0 .192-.465.506-1.395.944-1.075.501-1.709.752-1.9.752-.164 0-.353-.276-.567-.828-.215-.55-.363-.827-.445-.827.01 0-.508.24-1.552.718-1.043.479-1.834.718-2.372.718-1.203 0-2.246-.433-3.13-1.299-1.067-1.03-1.6-2.475-1.6-4.334 0-1.559.629-2.903 1.887-4.033 1.112-.994 2.246-1.49 3.404-1.49.82 0 1.8.104 2.94.314.355.064.533-.04.533-.314v-4.676c0-.529-.128-.902-.383-1.121-.164-.146-.552-.32-1.162-.52-.292-.11-.438-.287-.438-.533 0-.228.196-.396.588-.506.538-.164 1.18-.437 1.928-.82.62-.328 1.002-.492 1.148-.492.337 0 .506.232.506.697l-.04 1.36a89.441 89.441 0 0 0-.042 2.673v12.428c0 .52.232.78.697.78.173 0 .406-.028.698-.083.319-.055.533.05.642.315zm-4.224-1.354v-4.894c0-.402-.356-.816-1.067-1.245a4.684 4.684 0 0 0-2.46-.683c-1.906 0-2.858 1.176-2.858 3.527 0 1.258.378 2.333 1.135 3.227.756.893 1.645 1.34 2.666 1.34.464 0 1.011-.155 1.64-.465.63-.31.944-.58.944-.807zm16.077.397c0 .391-.528.88-1.585 1.462-1.203.648-2.438.971-3.705.971-1.377 0-2.534-.451-3.473-1.353-1.003-.957-1.504-2.233-1.504-3.828 0-1.805.56-3.254 1.682-4.348 1.048-1.021 2.333-1.531 3.855-1.531.903 0 1.746.287 2.53.86.701.511 1.166 1.095 1.394 1.75.082.229.205.356.37.384.236.045.355.205.355.478 0 .374-.447.693-1.34.957l-6.303 1.873c.41 2.17 1.522 3.254 3.336 3.254 1.048 0 2.242-.383 3.582-1.148.2-.119.396-.178.588-.178.146 0 .219.132.219.397zm-3.24-5.483c0-.501-.202-.94-.608-1.32-.406-.377-.905-.567-1.497-.567-1.677 0-2.516 1.208-2.516 3.623v.329l3.72-1.122c.6-.173.901-.487.901-.943zm18.239-2.297c0 .173-.287.351-.862.533-.373.11-.692.484-.957 1.122-.446 1.075-1.226 2.652-2.338 4.73-.938 1.76-1.663 3.044-2.173 3.855-.028.064-.087.092-.178.082a.27.27 0 0 1-.205-.109 59.7 59.7 0 0 1-4.963-8.531c-.292-.62-.579-.966-.861-1.04-.53-.209-.793-.396-.793-.56 0-.364.177-.524.533-.478.556.073 1.38.09 2.474.054 1.058-.027 1.8-.082 2.229-.164.264-.054.396.046.396.301 0 .32-.186.524-.56.615-.711.192-1.067.438-1.067.739 0 .136.046.332.137.588.31.765.866 1.87 1.668 3.315.802 1.445 1.258 2.167 1.367 2.167.082 0 .47-.693 1.162-2.078.73-1.468 1.254-2.652 1.573-3.555.045-.1.068-.2.068-.3 0-.356-.219-.648-.656-.876-.429-.173-.643-.337-.643-.492 0-.319.142-.451.424-.396.365.064 1.007.118 1.928.164.92.045 1.517.054 1.79.027.338-.064.507.032.507.287zm12.127 7.78c0 .391-.529.88-1.586 1.462-1.203.648-2.438.971-3.705.971-1.377 0-2.534-.451-3.473-1.353-1.003-.957-1.504-2.233-1.504-3.828 0-1.805.56-3.254 1.682-4.348 1.048-1.021 2.333-1.531 3.855-1.531.903 0 1.746.287 2.53.86.701.511 1.166 1.095 1.394 1.75.082.229.205.356.37.384.236.045.355.205.355.478 0 .374-.447.693-1.34.957l-6.303 1.873c.41 2.17 1.522 3.254 3.336 3.254 1.048 0 2.242-.383 3.582-1.148.2-.119.396-.178.588-.178.146 0 .219.132.219.397zm-3.24-5.483c0-.501-.203-.94-.609-1.32-.406-.377-.905-.567-1.497-.567-1.677 0-2.516 1.208-2.516 3.623v.329l3.72-1.122c.6-.173.901-.487.901-.943zm11.689 7.383c0 .365-.205.524-.615.478-1.258-.118-2.817-.1-4.676.055-.374.037-.604.027-.69-.027-.087-.055-.13-.205-.13-.451 0-.22.248-.404.745-.554.496-.15.745-.6.745-1.347v-12.373c0-.738-.107-1.28-.322-1.627-.214-.346-.59-.615-1.127-.806-.283-.1-.424-.242-.424-.424 0-.274.205-.479.615-.616.62-.2 1.262-.51 1.928-.93.547-.327.893-.491 1.039-.491.337 0 .506.232.506.697 0-.037-.019.42-.055 1.367-.027.902-.037 1.791-.027 2.666l.054 12.21c0 .555.137.958.41 1.209.274.25.743.417 1.409.5.41.045.615.2.615.464zm13.248-5.113c0 1.586-.588 2.928-1.764 4.026-1.176 1.098-2.634 1.647-4.375 1.647-1.74 0-3.117-.483-4.129-1.449-.975-.948-1.463-2.2-1.463-3.76 0-1.613.616-2.97 1.846-4.074 1.194-1.066 2.62-1.6 4.28-1.6 1.777 0 3.162.48 4.156 1.436.966.93 1.449 2.188 1.449 3.774zm-2.406.834c0-1.431-.347-2.593-1.04-3.487-.674-.866-1.53-1.299-2.57-1.299-.966 0-1.754.34-2.365 1.019-.61.68-.916 1.506-.916 2.481 0 1.568.355 2.79 1.066 3.665.657.802 1.513 1.203 2.57 1.203 1.003 0 1.796-.333 2.38-.998.583-.666.875-1.527.875-2.584zM408.2 157.4c0 1.704-.572 3.15-1.716 4.34-1.144 1.19-2.477 1.785-3.999 1.785-.92 0-1.81-.165-2.666-.493-.09-.036-.137.187-.137.67v4.115c0 .666.543 1.094 1.627 1.286.502.09.818.175.95.253.133.077.199.207.199.39 0 .31-.205.45-.615.423-1.914-.128-3.596-.082-5.045.137-.301.045-.488.045-.56 0-.074-.046-.11-.169-.11-.37 0-.154.26-.341.779-.56.447-.182.67-.62.67-1.312v-12.059c0-.975-.269-1.586-.807-1.832-.638-.283-.957-.515-.957-.697 0-.2.187-.351.56-.451.484-.119.98-.329 1.491-.63.428-.245.688-.369.78-.369.273 0 .496.251.67.752.255.73.423 1.094.505 1.094.018 0 .41-.214 1.176-.642.838-.465 1.659-.698 2.46-.698 1.304 0 2.38.37 3.227 1.108 1.012.866 1.518 2.119 1.518 3.76zm-2.324 1.093c0-1.485-.37-2.643-1.108-3.472-.601-.693-1.308-1.04-2.119-1.04-.629 0-1.23.22-1.804.657-.757.565-1.135 1.353-1.135 2.365v3.87c0 .245.346.505 1.039.778a6.45 6.45 0 0 0 2.433.452c1.796 0 2.694-1.203 2.694-3.61zm27.029 4.417c0 .3-.141.441-.424.423-1.86-.137-3.59-.137-5.195 0-.356.027-.533-.132-.533-.478 0-.274.241-.42.724-.438.611-.036.916-.533.916-1.49v-3.637c0-2.042-.83-3.062-2.488-3.062-.875 0-1.677.16-2.406.478-.666.283-1.003.565-1.012.848l-.055 5.428c0 .565.069.938.205 1.12.1.128.324.22.67.274.802.137 1.204.305 1.204.506 0 .173-.023.292-.069.355-.055.092-.219.133-.492.123-1.04-.036-2.552-.018-4.54.055-.282.01-.464-.014-.546-.068-.082-.055-.123-.183-.123-.383 0-.237.26-.383.78-.438.564-.063.847-.578.847-1.544v-3.72c0-1.002-.228-1.777-.684-2.323-.4-.493-.911-.739-1.53-.739-.912 0-1.733.185-2.462.554-.729.37-1.094.763-1.094 1.183v4.99c0 .565.146.957.438 1.176.264.2.743.323 1.435.369.374.018.561.146.561.383 0 .264-.15.396-.451.396-2.279 0-3.929.064-4.95.191-.346.046-.57.046-.67 0-.081-.045-.122-.154-.122-.328 0-.228.337-.423 1.011-.588.41-.109.616-.642.616-1.6v-4.196c0-1.067-.288-1.682-.862-1.846-.483-.137-.777-.237-.882-.3-.104-.065-.157-.17-.157-.315 0-.164.474-.51 1.422-1.04 1.003-.565 1.618-.847 1.846-.847.191 0 .353.276.485.827.132.551.235.827.308.827.1 0 .378-.141.834-.424.565-.355 1.075-.62 1.531-.793a6.303 6.303 0 0 1 2.31-.437c.639 0 1.195.137 1.668.41.329.182.625.433.89.752l.327.41.711-.41a9.517 9.517 0 0 1 1.627-.752 6.76 6.76 0 0 1 2.256-.41c2.497 0 3.746 1.372 3.746 4.115v4.43c0 .52.123.889.37 1.107.218.183.646.337 1.284.465.483.091.725.228.725.41zm11.553-1.928c0 .391-.529.88-1.586 1.462-1.203.648-2.438.971-3.705.971-1.376 0-2.534-.451-3.473-1.353-1.002-.957-1.504-2.233-1.504-3.828 0-1.805.56-3.254 1.682-4.348 1.048-1.021 2.333-1.531 3.855-1.531.903 0 1.746.287 2.53.86.701.511 1.166 1.095 1.394 1.75.082.229.205.356.37.384.236.045.355.205.355.478 0 .374-.447.693-1.34.957l-6.303 1.873c.41 2.17 1.522 3.254 3.336 3.254 1.048 0 2.242-.383 3.582-1.148.2-.119.397-.178.588-.178.146 0 .219.132.219.397zm-3.24-5.483c0-.501-.203-.94-.609-1.32-.405-.377-.904-.567-1.497-.567-1.677 0-2.516 1.208-2.516 3.623v.329l3.72-1.122c.6-.173.902-.487.902-.943zm19.646 7.533c0 .283-.205.41-.615.383-1.96-.1-3.445-.118-4.457-.055-.52.037-.802-.027-.848-.191a.77.77 0 0 1-.027-.232c0-.183.264-.347.793-.493.483-.136.724-.606.724-1.408V157.4c0-2.088-.906-3.131-2.72-3.131-.811 0-1.563.191-2.256.574-.656.374-.985.761-.985 1.162v5.004c0 .857.561 1.335 1.682 1.435.429.037.643.174.643.41 0 .228-.06.365-.178.41-.055.019-.21.024-.465.014a26.22 26.22 0 0 0-4.43.22c-.328.045-.533.058-.615.04-.182-.036-.273-.178-.273-.424 0-.218.26-.405.78-.56.482-.146.724-.752.724-1.819v-4.142c0-.702-.092-1.149-.274-1.34-.127-.137-.551-.328-1.271-.574-.183-.064-.274-.192-.274-.383 0-.182.187-.342.56-.479.511-.19 1.072-.496 1.683-.916.51-.346.838-.519.984-.52.246.001.41.281.492.842.082.56.196.84.342.84-.073 0 .392-.266 1.394-.8 1.003-.532 1.992-.799 2.967-.799 2.36 0 3.55 1.344 3.569 4.033l.027 4.403c0 .565.146.97.437 1.216.22.183.643.338 1.272.465.41.082.615.233.615.451zm8.777-1.039c0 .438-.4.811-1.203 1.121-.71.274-1.43.41-2.16.41-1.978 0-2.967-1.052-2.967-3.158v-4.949c0-.629-.05-1.014-.15-1.155-.1-.141-.433-.28-.998-.417-.146-.037-.219-.178-.219-.424 0-.264.055-.424.164-.479.985-.483 1.841-1.348 2.57-2.597.1-.173.297-.228.588-.164.2.064.306.182.315.355l.055 1.71c0 .127.022.218.068.273.064.082.21.123.437.123h3.05c.172 0 .172.214 0 .642-.21.52-.52.78-.93.78h-2.065c-.355 0-.574.059-.656.177-.064.082-.096.306-.096.67v4.47c0 1.131.1 1.847.301 2.147.264.383.88.575 1.846.575.319 0 .706-.053 1.162-.158.456-.104.697-.157.724-.157.11 0 .164.069.164.205zm6.207.616c0 2.37-.998 4.151-2.994 5.345-.182.11-.314.164-.396.164-.128 0-.246-.146-.356-.437a.757.757 0 0 1-.054-.246c0-.155.26-.41.779-.766.893-.62 1.34-1.322 1.34-2.105 0-.401-.26-.766-.78-1.094-.729-.456-1.093-1.016-1.093-1.682 0-.446.15-.818.45-1.114.302-.296.703-.444 1.204-.444.602 0 1.069.218 1.401.656.333.437.5 1.012.5 1.723zm-196.888 20.36c0 1.586-.588 2.928-1.764 4.026-1.176 1.098-2.634 1.647-4.375 1.647-1.74 0-3.117-.483-4.129-1.449-.975-.948-1.463-2.2-1.463-3.76 0-1.613.616-2.97 1.846-4.074 1.194-1.066 2.62-1.6 4.28-1.6 1.777 0 3.162.48 4.156 1.436.966.93 1.449 2.188 1.449 3.774zm-2.406.834c0-1.431-.347-2.593-1.04-3.487-.674-.866-1.53-1.299-2.57-1.299-.966 0-1.754.34-2.365 1.019-.61.68-.916 1.506-.916 2.481 0 1.568.355 2.79 1.066 3.665.657.802 1.513 1.203 2.57 1.203 1.003 0 1.796-.333 2.38-.998.583-.666.875-1.527.875-2.584zm19.044 4.429c0 .283-.205.41-.615.383-1.96-.1-3.445-.118-4.457-.055-.52.037-.802-.027-.847-.191a.77.77 0 0 1-.028-.232c0-.183.264-.347.793-.493.483-.136.725-.606.725-1.408V182.6c0-2.088-.907-3.131-2.721-3.131-.811 0-1.563.191-2.256.574-.656.374-.984.76-.984 1.162v5.004c0 .857.56 1.335 1.681 1.435.429.037.643.174.643.41 0 .228-.06.365-.178.41-.054.019-.21.024-.465.014a26.22 26.22 0 0 0-4.43.22c-.327.045-.532.058-.615.04-.182-.036-.273-.178-.273-.424 0-.218.26-.405.78-.56.482-.146.724-.752.724-1.819v-4.142c0-.702-.091-1.149-.273-1.34-.128-.137-.552-.328-1.272-.574-.182-.064-.273-.192-.273-.383 0-.182.186-.342.56-.479.51-.19 1.071-.496 1.682-.916.51-.346.838-.52.984-.52.246 0 .41.281.492.842.082.56.196.84.342.84-.073 0 .392-.266 1.395-.8 1.002-.532 1.991-.799 2.966-.799 2.361 0 3.55 1.344 3.569 4.033l.027 4.403c0 .565.146.97.438 1.216.218.183.642.338 1.271.465.41.082.615.233.615.451zm11.43-2.05c0 .391-.529.88-1.586 1.462-1.203.648-2.438.971-3.705.971-1.376 0-2.534-.451-3.473-1.353-1.002-.957-1.503-2.233-1.503-3.829 0-1.804.56-3.253 1.681-4.347 1.048-1.021 2.334-1.531 3.856-1.531.902 0 1.745.287 2.529.86.702.511 1.167 1.095 1.395 1.75.082.229.205.356.369.384.237.045.355.205.355.478 0 .374-.447.693-1.34.957l-6.302 1.873c.41 2.17 1.522 3.254 3.335 3.254 1.049 0 2.243-.383 3.583-1.148.2-.119.396-.178.587-.178.146 0 .22.132.22.397zm-3.24-5.483c0-.501-.203-.94-.608-1.32-.406-.377-.905-.567-1.498-.567-1.677 0-2.515 1.208-2.515 3.623v.329l3.719-1.122c.601-.173.902-.487.902-.943zm25.129 6.44a.517.517 0 0 1 .055.177c0 .192-.465.506-1.395.944-1.076.501-1.709.752-1.9.752-.164 0-.354-.276-.568-.828-.214-.55-.362-.827-.444-.827.009 0-.508.24-1.552.718-1.044.479-1.834.718-2.372.718-1.203 0-2.247-.433-3.13-1.299-1.067-1.03-1.6-2.475-1.6-4.334 0-1.559.628-2.903 1.886-4.033 1.112-.994 2.247-1.49 3.405-1.49.82 0 1.8.104 2.939.314.356.064.533-.04.533-.314v-4.676c0-.529-.127-.902-.383-1.121-.164-.146-.551-.32-1.162-.52-.291-.11-.437-.287-.437-.533 0-.228.196-.396.588-.506.537-.164 1.18-.437 1.927-.82.62-.328 1.003-.492 1.149-.492.337 0 .506.232.506.697l-.041 1.36a89.441 89.441 0 0 0-.041 2.673v12.428c0 .52.232.78.697.78.173 0 .406-.028.697-.083.32-.055.533.05.643.315zm-4.225-1.354v-4.894c0-.402-.355-.816-1.066-1.245a4.684 4.684 0 0 0-2.461-.683c-1.905 0-2.858 1.176-2.858 3.527 0 1.258.379 2.333 1.135 3.227.757.893 1.645 1.34 2.666 1.34.465 0 1.012-.155 1.64-.465.63-.31.944-.58.944-.807zm14.548-7c0 1.103-.32 1.654-.958 1.654-.1 0-.433-.063-.998-.191s-.98-.191-1.244-.191c-1.021 0-1.531.688-1.531 2.064v4.033c0 .474.164.811.492 1.012.191.118.67.278 1.435.478.41.1.616.256.616.465 0 .246-.035.394-.103.445-.068.05-.24.061-.513.034-2.005-.21-3.59-.219-4.757-.027-.365.063-.597.063-.698 0-.082-.055-.123-.215-.123-.479 0-.246.253-.442.759-.588.506-.146.759-.583.759-1.312v-4.39c0-.573-.075-.96-.226-1.161-.15-.2-.563-.47-1.237-.807l-.082-.04c-.182-.092-.274-.22-.274-.384 0-.182.187-.337.561-.464a6.054 6.054 0 0 0 1.723-.93c.428-.337.701-.506.82-.506.328 0 .524.283.588.848.082.72.178 1.08.287 1.08.009 0 .52-.342 1.531-1.026a3.844 3.844 0 0 1 2.188-.67c.656 0 .984.351.984 1.053zm13.548 4.184c0 1.586-.588 2.928-1.764 4.026-1.176 1.098-2.634 1.647-4.375 1.647-1.74 0-3.117-.483-4.129-1.449-.975-.948-1.463-2.2-1.463-3.76 0-1.613.616-2.97 1.846-4.074 1.194-1.066 2.62-1.6 4.28-1.6 1.777 0 3.162.48 4.156 1.436.966.93 1.449 2.188 1.449 3.774zm-2.406.834c0-1.431-.347-2.593-1.04-3.487-.674-.866-1.53-1.299-2.57-1.299-.966 0-1.754.34-2.365 1.019-.61.68-.916 1.506-.916 2.481 0 1.568.355 2.79 1.066 3.665.657.802 1.513 1.203 2.57 1.203 1.003 0 1.796-.333 2.38-.998.583-.666.875-1.527.875-2.584zm16.693-1.203c0 1.704-.572 3.15-1.716 4.34-1.144 1.19-2.477 1.785-3.999 1.785-.92 0-1.81-.165-2.666-.493-.09-.036-.137.187-.137.67v4.115c0 .666.543 1.094 1.627 1.286.502.09.818.175.95.253.133.077.199.207.199.39 0 .31-.205.45-.615.423-1.914-.128-3.596-.082-5.045.137-.301.045-.488.045-.56 0-.074-.046-.11-.169-.11-.37 0-.154.26-.341.779-.56.447-.182.67-.62.67-1.312v-12.059c0-.975-.269-1.586-.807-1.832-.638-.283-.957-.515-.957-.697 0-.2.187-.351.56-.451.484-.119.98-.329 1.491-.63.428-.245.688-.369.78-.369.273 0 .496.251.67.752.255.73.423 1.094.505 1.094.018 0 .41-.214 1.176-.642.838-.465 1.659-.698 2.46-.698 1.304 0 2.38.37 3.227 1.108 1.012.866 1.518 2.119 1.518 3.76zm-2.324 1.093c0-1.485-.37-2.643-1.108-3.472-.601-.693-1.308-1.04-2.119-1.04-.629 0-1.23.22-1.804.657-.757.565-1.135 1.353-1.135 2.365v3.87c0 .245.346.505 1.039.778a6.45 6.45 0 0 0 2.433.452c1.796 0 2.694-1.203 2.694-3.61zm22.586 3.473c0 .191-.349.48-1.046.868-.697.387-1.256.581-1.675.581-.355 0-.67-.173-.943-.52-.274-.346-.465-.519-.575-.519-.082 0-.515.187-1.298.56-.784.374-1.573.561-2.366.561-.747 0-1.371-.219-1.873-.656-.547-.483-.82-1.14-.82-1.969 0-1.577 1.805-2.707 5.414-3.39.62-.119.934-.37.943-.752l.028-.875c.054-1.495-.606-2.243-1.983-2.243-.392 0-.763.351-1.114 1.053-.35.702-.854 1.08-1.51 1.135-.748.073-1.122-.242-1.122-.943 0-.438.556-.948 1.668-1.532 1.167-.61 2.288-.916 3.363-.916 1.85 0 2.767.88 2.749 2.639l-.055 5.633c-.01.592.241.888.752.888.1 0 .291-.022.574-.068a5.74 5.74 0 0 1 .492-.068c.265 0 .397.177.397.533zm-4.211-3.117c.009-.228-.044-.379-.157-.451-.114-.073-.294-.087-.54-.041-2.197.392-3.295 1.107-3.295 2.146 0 1.048.57 1.572 1.709 1.572.455 0 .925-.086 1.408-.26.565-.2.847-.441.847-.724zm13.398 3.144c0 .438-.4.811-1.203 1.121a5.974 5.974 0 0 1-2.16.41c-1.978 0-2.967-1.052-2.967-3.158v-4.949c0-.629-.05-1.014-.15-1.155-.1-.141-.433-.28-.998-.417-.146-.037-.219-.178-.219-.424 0-.264.055-.424.164-.479.984-.483 1.841-1.348 2.57-2.597.1-.173.297-.228.588-.164.2.064.306.182.315.355l.054 1.71c0 .127.023.218.069.273.064.082.21.123.437.123h3.05c.172 0 .172.214 0 .642-.21.52-.52.78-.93.78h-2.065c-.356 0-.574.059-.656.177-.064.082-.096.306-.096.67v4.47c0 1.131.1 1.847.3 2.147.265.383.88.575 1.846.575.32 0 .707-.053 1.163-.158.455-.104.697-.157.724-.157.11 0 .164.069.164.205zm19.797-.027c0 .191-.349.48-1.046.868-.697.387-1.255.581-1.675.581-.355 0-.67-.173-.943-.52-.273-.346-.465-.519-.574-.519-.082 0-.515.187-1.299.56-.784.374-1.572.561-2.365.561-.748 0-1.372-.219-1.873-.656-.547-.483-.82-1.14-.82-1.969 0-1.577 1.804-2.707 5.413-3.39.62-.119.935-.37.944-.752l.027-.875c.055-1.495-.606-2.243-1.982-2.243-.392 0-.764.351-1.115 1.053-.35.702-.854 1.08-1.51 1.135-.748.073-1.121-.242-1.121-.943 0-.438.556-.948 1.668-1.532 1.166-.61 2.287-.916 3.363-.916 1.85 0 2.766.88 2.748 2.639l-.055 5.633c-.009.592.242.888.752.888.1 0 .292-.022.574-.068a5.74 5.74 0 0 1 .493-.068c.264 0 .396.177.396.533zm-4.21-3.117c.008-.228-.044-.379-.158-.451-.114-.073-.294-.087-.54-.041-2.197.392-3.295 1.107-3.295 2.146 0 1.048.57 1.572 1.709 1.572.456 0 .925-.086 1.408-.26.565-.2.848-.441.848-.724zm20.343 3.144c0 .438-.401.811-1.203 1.121a5.962 5.962 0 0 1-2.16.41c-1.978 0-2.967-1.052-2.967-3.158v-4.949c0-.629-.05-1.014-.15-1.155-.1-.141-.433-.28-.999-.417-.145-.037-.218-.178-.218-.424 0-.264.054-.424.164-.479.984-.483 1.84-1.348 2.57-2.597.1-.173.296-.228.588-.164.2.064.305.182.314.355l.055 1.71c0 .127.023.218.068.273.064.082.21.123.438.123h3.049c.173 0 .173.214 0 .642-.21.52-.52.78-.93.78h-2.064c-.356 0-.575.059-.657.177-.063.082-.095.306-.095.67v4.47c0 1.131.1 1.847.3 2.147.265.383.88.575 1.846.575.32 0 .707-.053 1.162-.158.456-.104.698-.157.725-.157.11 0 .164.069.164.205zm6.85-14.533c0 .42-.158.809-.472 1.169-.315.36-.659.54-1.032.54-.429 0-.78-.128-1.053-.383-.274-.255-.41-.588-.41-.998 0-.4.166-.775.499-1.12.332-.347.69-.52 1.073-.52.93 0 1.395.437 1.395 1.312zm1.517 15.477c-.045.264-.155.414-.328.45-.046.01-.264 0-.656-.027a24.435 24.435 0 0 0-4.006.055c-.356.037-.579.023-.67-.04-.091-.065-.137-.21-.137-.438 0-.21.242-.383.725-.52.528-.155.793-.66.793-1.517v-3.582c0-.72-.073-1.226-.219-1.518-.2-.401-.615-.706-1.244-.916-.283-.1-.424-.25-.424-.451 0-.265.205-.46.615-.588a7.905 7.905 0 0 0 2.037-.943c.474-.329.766-.493.875-.493.365 0 .543.237.534.711a477.838 477.838 0 0 0-.055 7.301c0 .593.087 1.016.26 1.272.191.282.556.483 1.093.601.593.137.862.351.807.643zm24.076-.027c0 .3-.141.441-.424.423-1.859-.137-3.59-.137-5.195 0-.355.028-.533-.132-.533-.478 0-.274.241-.42.725-.438.61-.036.916-.533.916-1.49v-3.637c0-2.042-.83-3.062-2.489-3.062-.875 0-1.677.16-2.406.478-.665.283-1.003.565-1.012.848l-.054 5.428c0 .565.068.938.205 1.12.1.128.323.22.67.274.802.137 1.203.305 1.203.506 0 .173-.023.292-.069.355-.054.092-.218.133-.492.123-1.039-.036-2.552-.018-4.539.055-.282.01-.465-.014-.547-.068-.082-.055-.123-.183-.123-.383 0-.237.26-.383.78-.438.565-.063.847-.578.847-1.544v-3.72c0-1.002-.228-1.777-.683-2.323-.402-.493-.912-.739-1.532-.739-.911 0-1.731.185-2.46.554-.73.37-1.094.763-1.094 1.183v4.99c0 .565.145.957.437 1.176.264.2.743.323 1.436.369.373.018.56.146.56.383 0 .264-.15.396-.451.396-2.279 0-3.928.064-4.95.191-.346.046-.569.046-.67 0-.081-.045-.122-.154-.122-.328 0-.228.337-.423 1.012-.588.41-.109.615-.642.615-1.6v-4.196c0-1.067-.287-1.682-.862-1.846-.483-.137-.777-.237-.881-.3-.105-.065-.158-.17-.158-.315 0-.164.474-.51 1.422-1.04 1.003-.565 1.618-.847 1.846-.847.191 0 .353.276.485.827.132.551.235.827.308.827.1 0 .378-.141.834-.424.565-.355 1.075-.62 1.531-.793a6.303 6.303 0 0 1 2.31-.437c.639 0 1.195.137 1.669.41.328.182.624.433.888.752.22.273.328.41.328.41l.711-.41a9.517 9.517 0 0 1 1.627-.752 6.76 6.76 0 0 1 2.256-.41c2.498 0 3.746 1.372 3.746 4.115v4.43c0 .52.123.889.37 1.107.218.183.647.337 1.285.465.483.091.724.228.724.41zm11.553-1.928c0 .391-.529.88-1.586 1.462-1.203.648-2.438.971-3.705.971-1.376 0-2.534-.451-3.473-1.353-1.002-.957-1.504-2.233-1.504-3.829 0-1.804.561-3.253 1.682-4.347 1.048-1.021 2.333-1.531 3.856-1.531.902 0 1.745.287 2.529.86.702.511 1.167 1.095 1.394 1.75.082.229.205.356.37.384.236.045.355.205.355.478 0 .374-.447.693-1.34.957l-6.303 1.873c.41 2.17 1.523 3.254 3.336 3.254 1.049 0 2.243-.383 3.582-1.148.2-.119.397-.178.588-.178.146 0 .219.132.219.397zm-3.24-5.483c0-.501-.203-.94-.609-1.32-.405-.377-.904-.567-1.497-.567-1.677 0-2.515 1.208-2.515 3.623v.329l3.718-1.122c.602-.173.903-.487.903-.943z" style="font-size:28px;font-variant:normal;font-stretch:normal;text-align:end;line-height:89.99999762%;writing-mode:lr-tb;text-anchor:end;font-family:High Tower Text;-inkscape-font-specification:High Tower Text" transform="translate(-27.82 -20.715)"/></g></svg>